<svg width="22" height="14" viewBox="0 0 22 14" fill="none" xmlns="http://www.w3.org/2000/svg">
<path d="M2.0938 0.0890617C1.6813 0.220312 1.43755 0.370312 1.1563 0.651562C0.856299 0.956249 0.673486 1.275 0.570361 1.66406C0.462549 2.08125 0.462549 11.325 0.570361 11.7422C0.767236 12.4969 1.32974 13.0828 2.08442 13.3125C2.37974 13.4062 2.53911 13.4062 10.925 13.4062C18.0782 13.4062 19.4985 13.3969 19.7047 13.3406C20.436 13.1437 20.9938 12.6234 21.275 11.8781L21.3829 11.6016L21.3969 6.96094C21.4063 3.975 21.3922 2.18906 21.3641 1.95937C21.2422 1.05469 20.5907 0.290625 19.7422 0.0703115C19.4985 0.00937462 18.4625 -9.53674e-07 10.9063 0.00468731C2.83911 0.00468731 2.33755 0.00937462 2.0938 0.0890617ZM9.59849 3.73594C9.79067 3.77344 12.95 6.12656 13.0766 6.33281C13.1938 6.51094 13.1704 6.95625 13.0391 7.125C12.8938 7.32187 9.80474 9.60937 9.62192 9.66094C9.29849 9.75 8.9563 9.59062 8.79692 9.27656C8.70317 9.09844 8.70317 9.01875 8.71255 6.64219L8.72661 4.19531L8.83911 4.03594C8.90005 3.95156 9.03599 3.83906 9.1438 3.79219C9.35942 3.69375 9.38286 3.68906 9.59849 3.73594Z" fill="#2C2C2E"/>
</svg>
