<svg width="24" height="24" viewBox="0 0 24 24" fill="none" xmlns="http://www.w3.org/2000/svg">
<g clip-path="url(#clip0_465_908)">
<path d="M1.9312 0.0937614C1.46714 0.215636 1.11557 0.426574 0.749948 0.792199C0.389011 1.16251 0.215573 1.45782 0.0936981 1.95001C-5.1862e-05 2.30157 -5.18638e-05 2.49376 -5.18638e-05 9.74532C-5.18638e-05 17.9906 -0.0188019 17.475 0.314011 18.1031C0.618698 18.6891 1.19995 19.1672 1.87495 19.3875C2.1187 19.4719 2.47026 19.4766 7.88432 19.4906L13.6312 19.5047L13.6546 17.7094C13.6781 15.75 13.6874 15.6375 13.9687 14.9109C14.2593 14.1656 14.9015 13.3688 15.5859 12.9047C16.7953 12.0891 18.3187 11.925 19.6499 12.4688C21.1171 13.0688 22.1624 14.4234 22.3593 15.9891C22.3828 16.2047 22.4062 17.0297 22.4062 17.8219C22.4062 18.6188 22.4203 19.2656 22.4437 19.2656C22.4624 19.2656 22.589 19.2 22.7249 19.1203C23.0765 18.9234 23.4843 18.4875 23.6859 18.1031C24.0187 17.475 23.9999 17.9906 23.9999 9.74532C23.9999 2.48439 23.9999 2.30157 23.9062 1.95001C23.7843 1.4672 23.5828 1.12032 23.2078 0.750011C22.8421 0.389074 22.5421 0.220324 22.0499 0.0937614C21.6937 1.1432e-05 21.5015 1.1432e-05 11.9812 0.00469893C2.55932 0.00469893 2.26401 0.00938643 1.9312 0.0937614ZM17.564 3.14064C17.8499 3.2672 17.9624 3.46876 17.939 3.81095C17.9249 4.05001 17.9015 4.10157 17.7515 4.25626L17.5781 4.4297L12.0796 4.44376C8.20307 4.45314 6.54839 4.43907 6.46401 4.40157C6.3937 4.37345 6.2812 4.28907 6.2062 4.21407C6.10307 4.10626 6.07495 4.02657 6.06089 3.81095C6.03745 3.46876 6.14995 3.2672 6.43589 3.14064C6.62807 3.05157 6.8062 3.04689 11.9999 3.04689C17.1937 3.04689 17.3718 3.05157 17.564 3.14064ZM20.6765 6.20157C20.7749 6.2672 20.8687 6.39376 20.9249 6.52501C21.0046 6.72189 21.0093 6.76876 20.9578 6.9422C20.8828 7.19064 20.6953 7.38282 20.4562 7.44845C20.1937 7.52345 3.80151 7.51876 3.53901 7.44845C3.29526 7.37814 3.06557 7.13439 3.02339 6.89532C2.9812 6.6422 3.12651 6.31876 3.33745 6.18751C3.49214 6.09376 3.5437 6.09376 12.0046 6.09376H20.5171L20.6765 6.20157ZM20.6296 9.19689C21.1265 9.47814 21.0796 10.2141 20.5453 10.4344C20.3203 10.5328 3.67964 10.5328 3.45464 10.4344C2.92495 10.2141 2.87339 9.48282 3.36089 9.19689L3.53901 9.09376H11.9953H20.4468L20.6296 9.19689ZM11.7046 14.4188C12.1453 14.7469 12.1546 15.3094 11.7234 15.5953L11.564 15.7031H7.55151C3.72182 15.7031 3.52964 15.6984 3.37495 15.6141C3.14057 15.4922 2.9812 15.1641 3.02339 14.9063C3.06557 14.6719 3.2812 14.4094 3.48745 14.3484C3.57182 14.3203 5.29682 14.3063 7.60307 14.3109C11.5499 14.3203 11.5734 14.3203 11.7046 14.4188Z" fill="#2C2C2E"/>
<path d="M17.4233 13.6219C16.3733 13.8469 15.5342 14.6063 15.2061 15.6281C15.0561 16.0969 15.0326 16.7813 15.1545 17.236C15.5436 18.6985 16.9451 19.6547 18.3983 19.4485C20.2826 19.186 21.4358 17.3063 20.8123 15.525C20.5733 14.8453 20.0108 14.2078 19.3592 13.8891C18.7123 13.5656 18.0842 13.4813 17.4233 13.6219Z" fill="#2C2C2E"/>
<path d="M15.0563 21.6234C15.0704 23.4609 15.075 23.5313 15.1688 23.6531C15.3469 23.8922 15.5016 23.9766 15.7688 23.9766C16.0125 23.9766 16.0454 23.9578 16.9969 23.325C17.536 22.9641 17.9954 22.6734 18.0235 22.6734C18.0516 22.6734 18.511 22.9641 19.05 23.325C20.0016 23.9578 20.0344 23.9766 20.2782 23.9766C20.5454 23.9766 20.7 23.8922 20.8782 23.6531C20.9719 23.5313 20.9766 23.4609 20.9907 21.6281L21.0047 19.7344L20.6625 19.9922C20.2125 20.3344 19.6454 20.6063 19.0875 20.7516C18.511 20.9016 17.6579 20.9156 17.1094 20.7891C16.4625 20.6391 15.8532 20.3484 15.3188 19.9359L15.0422 19.725L15.0563 21.6234Z" fill="#2C2C2E"/>
</g>
<defs>
<clipPath id="clip0_465_908">
<rect width="24" height="24" fill="white"/>
</clipPath>
</defs>
</svg>
