<svg width="24" height="24" viewBox="0 0 24 24" fill="none" xmlns="http://www.w3.org/2000/svg">
<path d="M3.0938 3.08906C2.6813 3.22031 2.43755 3.37031 2.1563 3.65156C1.8563 3.95625 1.67349 4.275 1.57036 4.66406C1.46255 5.08125 1.46255 14.325 1.57036 14.7422C1.76724 15.4969 2.32974 16.0828 3.08442 16.3125C3.37974 16.4062 3.53911 16.4062 11.925 16.4062C19.0782 16.4062 20.4985 16.3969 20.7047 16.3406C21.436 16.1437 21.9938 15.6234 22.275 14.8781L22.3829 14.6016L22.3969 9.96094C22.4063 6.975 22.3922 5.18906 22.3641 4.95937C22.2422 4.05469 21.5907 3.29062 20.7422 3.07031C20.4985 3.00937 19.4625 3 11.9063 3.00469C3.83911 3.00469 3.33755 3.00937 3.0938 3.08906ZM10.5985 6.73594C10.7907 6.77344 13.95 9.12656 14.0766 9.33281C14.1938 9.51094 14.1704 9.95625 14.0391 10.125C13.8938 10.3219 10.8047 12.6094 10.6219 12.6609C10.2985 12.75 9.9563 12.5906 9.79692 12.2766C9.70317 12.0984 9.70317 12.0187 9.71255 9.64219L9.72661 7.19531L9.83911 7.03594C9.90005 6.95156 10.036 6.83906 10.1438 6.79219C10.3594 6.69375 10.3829 6.68906 10.5985 6.73594Z" fill="#2C2C2E"/>
<path d="M7.04525 17.9719C6.76869 18.0609 6.55306 18.2062 6.34681 18.4359L6.16869 18.6328L4.06869 18.6562C2.039 18.6797 1.97337 18.6844 1.84212 18.7781C1.589 18.9656 1.49056 19.1672 1.50931 19.4437C1.53275 19.7062 1.6265 19.8703 1.84681 20.0344C1.97337 20.1281 2.04837 20.1328 4.06869 20.1562L6.164 20.1797L6.37025 20.4C6.9515 21.0328 7.93119 21.0469 8.5265 20.4375C8.63431 20.3297 8.71869 20.2219 8.71869 20.1984C8.71869 20.175 11.5218 20.1562 15.2437 20.1562C21.7452 20.1562 21.7687 20.1562 21.9656 20.0578C22.5093 19.7953 22.514 19.0219 21.9796 18.75C21.8062 18.6562 21.6702 18.6562 15.2718 18.6516H8.74212L8.6015 18.4547C8.3015 18.0469 7.54212 17.8078 7.04525 17.9719Z" fill="#2C2C2E"/>
</svg>
