<svg width="24" height="24" viewBox="0 0 24 24" fill="none" xmlns="http://www.w3.org/2000/svg">
<path d="M11.4515 0.0703125C10.8422 0.239061 11.0109 0.0843735 5.61092 5.475C2.80779 8.27812 0.449979 10.6641 0.374979 10.7766C-0.206271 11.6437 -0.089084 12.8062 0.651541 13.5516C1.08279 13.9781 1.63123 14.2031 2.25935 14.2031H2.5781V17.9531C2.5781 20.4891 2.59685 21.7781 2.62967 21.9469C2.80779 22.8 3.49685 23.5734 4.34998 23.8687C4.65935 23.9766 4.68279 23.9766 6.94685 23.9766C9.1781 23.9766 9.22967 23.9766 9.35623 23.8781C9.42654 23.8266 9.52967 23.7234 9.58123 23.6531C9.67967 23.5266 9.67967 23.4656 9.7031 20.3953L9.72654 17.2641L9.86717 17.0344C10.0453 16.7484 10.4062 16.5187 10.7531 16.4766C10.8844 16.4578 11.5406 16.4531 12.2109 16.4625L13.4297 16.4766L13.6781 16.6125C13.9125 16.7437 14.0625 16.8984 14.2078 17.1562C14.2594 17.2547 14.2781 17.8312 14.2969 20.4C14.3203 23.4656 14.3203 23.5266 14.4187 23.6531C14.4703 23.7234 14.5734 23.8266 14.6437 23.8781C14.7703 23.9766 14.8219 23.9766 17.0531 23.9766C19.3172 23.9766 19.3406 23.9766 19.65 23.8687C20.5031 23.5734 21.1922 22.8 21.3703 21.9469C21.4031 21.7781 21.4219 20.4891 21.4219 17.9531V14.2031H21.7406C22.8656 14.2031 23.775 13.4391 23.9625 12.3375C24.0328 11.9062 23.9625 11.4469 23.7609 11.0156C23.625 10.7344 23.2172 10.3125 18.5203 5.61094C15.7219 2.80781 13.3312 0.449999 13.2094 0.370312C13.0875 0.290625 12.8765 0.182812 12.7406 0.131248C12.4125 0.00468636 11.7844 -0.0234375 11.4515 0.0703125Z" fill="#2C2C2E"/>
</svg>
