<svg width="16" height="24" viewBox="0 0 16 24" fill="none" xmlns="http://www.w3.org/2000/svg">
<path d="M1.52355 0.0656261C0.829804 0.239063 0.253241 0.81094 0.0657412 1.51875C0.0141787 1.71563 0.000116219 3.31875 0.000116219 10.9922C0.000116219 21.1031 -0.0139463 20.5125 0.267304 21C0.440741 21.2906 0.787616 21.6281 1.05949 21.7641C1.18605 21.825 2.70012 22.35 4.4298 22.9266L7.57043 23.9766H7.9923C8.50793 23.9766 8.79855 23.8828 9.18762 23.5969C9.50168 23.3672 9.7548 23.0203 9.89074 22.6266C9.96574 22.4109 9.98449 22.2422 9.98449 21.6797V21H11.6392C13.5236 21 13.7111 20.9766 14.3439 20.6672C15.1032 20.2969 15.7173 19.5234 15.9095 18.7031C16.0173 18.2484 16.0173 13.8609 15.9142 13.6031C15.6001 12.8531 14.5126 12.8063 14.1189 13.5234C14.0486 13.6453 14.0345 13.9406 14.0157 15.9609L13.9923 18.2578L13.8751 18.4688C13.8095 18.5813 13.6642 18.7406 13.5564 18.8203L13.3501 18.9609L11.6673 18.975L9.98449 18.9891L9.97512 11.2406L9.96105 3.49219L9.81105 3.17813C9.5673 2.6625 9.23918 2.35781 8.67668 2.12344L8.41418 2.01563L10.8845 2.02969L13.3501 2.03906L13.5564 2.17969C13.6642 2.25938 13.8095 2.41875 13.8751 2.53125L13.9923 2.74219L14.0157 4.55625L14.0392 6.36563L14.1798 6.56719C14.3907 6.86719 14.6673 6.99375 15.0517 6.975C15.4079 6.95625 15.647 6.825 15.8439 6.52969L15.9611 6.35625L15.9751 4.49531C15.9892 2.39531 15.9751 2.26875 15.6657 1.64063C15.4126 1.125 14.8782 0.595314 14.3439 0.332813C13.6314 -0.014061 13.9642 1.90735e-06 7.52355 0.00468826C3.10324 0.00937653 1.70168 0.0234394 1.52355 0.0656261Z" fill="#2C2C2E"/>
</svg>
