<svg width="16" height="11" viewBox="0 0 16 11" fill="none" xmlns="http://www.w3.org/2000/svg">
<path d="M0.888889 11H15.1111C15.6 11 16 10.5875 16 10.0833C16 9.57917 15.6 9.16667 15.1111 9.16667H0.888889C0.4 9.16667 0 9.57917 0 10.0833C0 10.5875 0.4 11 0.888889 11ZM0.888889 6.41667H15.1111C15.6 6.41667 16 6.00417 16 5.5C16 4.99583 15.6 4.58333 15.1111 4.58333H0.888889C0.4 4.58333 0 4.99583 0 5.5C0 6.00417 0.4 6.41667 0.888889 6.41667ZM0 0.916667C0 1.42083 0.4 1.83333 0.888889 1.83333H15.1111C15.6 1.83333 16 1.42083 16 0.916667C16 0.4125 15.6 0 15.1111 0H0.888889C0.4 0 0 0.4125 0 0.916667Z" fill="#D1D1D6"/>
</svg>
