<svg width="22" height="24" viewBox="0 0 22 24" fill="none" xmlns="http://www.w3.org/2000/svg">
<path d="M9.56138 0.0444984C7.62906 0.348906 5.9482 1.42756 4.88278 3.04224C3.40045 5.29883 3.43354 8.23701 4.95557 10.5068C5.34601 11.0759 6.20629 11.9296 6.80187 12.32L7.28495 12.6377L7.24524 12.8958C7.13936 13.5641 6.72245 13.9943 5.8357 14.3318C3.97617 15.0531 2.22253 16.2839 1.24313 17.5744C0.839459 18.1038 0.310056 19.1824 0.157852 19.7648C0.0122662 20.3339 -0.0539092 22.2397 0.0519715 22.7493C0.157852 23.239 0.435789 23.6162 0.865929 23.8279L1.21004 24H10.5408C19.4943 24 19.8914 23.9934 20.1428 23.8743C20.4671 23.7221 20.798 23.3846 20.9303 23.0603C21.0693 22.7294 21.0759 20.6581 20.9436 20.0229C20.6987 18.8846 20.0965 17.8854 18.9914 16.7869C17.9193 15.7215 16.6885 14.9406 15.0936 14.3053C14.5973 14.1068 14.4319 14.0009 14.2003 13.7428C13.929 13.4384 13.7569 13.0612 13.7569 12.7634C13.7569 12.6708 13.8959 12.5318 14.24 12.3134C14.8223 11.923 15.6892 11.0759 16.073 10.5068C17.6083 8.22378 17.6215 5.26574 16.1127 2.99592C15.1929 1.61286 13.7768 0.613607 12.1753 0.20332C11.4606 0.0180283 10.2165 -0.0547657 9.56138 0.0444984ZM11.1364 14.8016C11.2356 14.8347 11.3547 14.9604 11.4077 15.0796C11.4606 15.1987 11.7452 16.2442 12.0363 17.4023C12.4996 19.2155 12.5657 19.5398 12.5062 19.7185C12.4268 19.9434 11.0702 21.3397 10.7856 21.4853C10.4415 21.6574 10.2033 21.525 9.343 20.6714C8.84007 20.1684 8.52243 19.7912 8.48934 19.6787C8.45625 19.5464 8.61507 18.8383 9.01212 17.2633C9.68711 14.6296 9.62756 14.7354 10.4481 14.7354C10.7327 14.7354 11.0437 14.7619 11.1364 14.8016Z" fill="#2C2C2E"/>
</svg>
